PathFileType	4	(X/Y/Z)	s06c0202.trc
DataRate	CameraRate	NumFrames	NumMarkers	Units	OrigDataRate	OrigDataStartFrame	OrigNumFrames
200	200	5	48	mm	200	1250	2000
Frame#	Time	racr			lacr			c7			jug			rlel			rdr			llel			ldr			s2			lic			ric			lasi			rasi			rpsi			lpsi			rgt			lgt			rth1			rth2			rth3			rth4			rlfc			rmfc			rsh1			rsh2			rsh3			rsh4			rlmal			rcal			rtoe			rmt5			lth1			lth2			lth4			lth3			llfc			lmfc			llmal			lcal			lmt5			lsh1			lsh2			lsh3			lsh4			ltoe			SBIKE			LBIKE			RBIKE			
		X1	Y1	Z1	X2	Y2	Z2	X3	Y3	Z3	X4	Y4	Z4	X5	Y5	Z5	X6	Y6	Z6	X7	Y7	Z7	X8	Y8	Z8	X9	Y9	Z9	X10	Y10	Z10	X11	Y11	Z11	X12	Y12	Z12	X13	Y13	Z13	X14	Y14	Z14	X15	Y15	Z15	X16	Y16	Z16	X17	Y17	Z17	X18	Y18	Z18	X19	Y19	Z19	X20	Y20	Z20	X21	Y21	Z21	X22	Y22	Z22	X23	Y23	Z23	X24	Y24	Z24	X25	Y25	Z25	X26	Y26	Z26	X27	Y27	Z27	X28	Y28	Z28	X29	Y29	Z29	X30	Y30	Z30	X31	Y31	Z31	X32	Y32	Z32	X33	Y33	Z33	X34	Y34	Z34	X35	Y35	Z35	X36	Y36	Z36	X37	Y37	Z37	X38	Y38	Z38	X39	Y39	Z39	X40	Y40	Z40	X41	Y41	Z41	X42	Y42	Z42	X43	Y43	Z43	X44	Y44	Z44	X45	Y45	Z45	X46	Y46	Z46	X47	Y47	Z47	X48	Y48	Z48	
1250	6.2500	556.477284	1202.004716	-86.836559	569.524552	1179.006092	-392.282150	557.238252	1292.085862	-242.871023	523.375286	1126.054704	-236.323181	490.047983	986.759796	65.814204	655.846275	906.639371	-59.815648	458.397594	956.972002	-513.265327	643.447720	911.657440	-402.060378	-6.223059	1143.503173	-209.280219	136.779050	1099.498701	-391.711723	145.162606	1104.185536	-52.446643	154.531439	1047.482728	-351.249332	169.919282	1064.559554	-90.447972	28.788266	1178.419678	-178.081274	26.527047	1177.624706	-237.484551	115.038508	1025.917327	-12.214181	111.871563	1038.773898	-410.142159	211.890530	943.560147	-12.747715	288.877414	896.566033	-22.935428	330.656307	820.629732	-25.704881	309.390356	920.643978	-43.598299	359.225777	724.187183	-48.368106	338.038707	704.600004	-156.273161	268.977125	640.401509	-26.063879	211.572966	579.239894	-49.945456	129.499109	546.455034	-52.443781	224.547087	566.524761	-86.432257	55.198194	511.276717	-56.723547	-9.122248	535.427407	-106.574985	157.457463	314.245946	-96.544892	77.562391	376.489701	-30.858281	168.491061	921.193380	-423.590565	239.535212	871.496531	-416.306441	267.158437	894.740881	-405.918799	276.506905	790.284782	-408.533702	324.941341	681.909896	-388.090921	330.367188	666.206771	-274.760196	245.236133	314.739171	-379.332223	177.376414	269.910062	-330.602197	373.091450	275.306104	-408.293184	305.773313	573.273907	-409.752140	307.907080	488.355918	-389.542818	268.498076	408.831097	-386.939775	333.099959	487.381509	-358.888253	456.060057	302.522465	-350.477222	-202.757697	865.793145	-215.367461	-49.161004	79.773568	-415.260306	-49.157454	79.727679	-17.727814	
1251	6.2550	556.270958	1203.865671	-85.318719	569.805195	1179.493783	-391.313769	557.512323	1293.150999	-242.097983	522.794836	1127.382608	-235.241473	490.301485	987.444247	65.726640	656.057703	906.874419	-59.991144	459.203537	957.405530	-513.152866	644.291928	911.791432	-401.939159	-6.520582	1144.285778	-211.010757	137.706094	1100.733523	-392.832834	144.251804	1106.079145	-53.946981	156.467849	1049.177314	-351.901292	168.629424	1065.622213	-91.322572	29.044480	1179.380206	-180.231740	27.359932	1178.229329	-239.629633	115.043580	1030.098885	-12.724666	112.672575	1037.191292	-410.565137	211.978188	949.051863	-15.701502	290.842176	904.021227	-23.105544	334.227470	829.047133	-25.091876	311.209940	928.441777	-43.377861	364.782620	732.894250	-47.962822	345.442550	714.071801	-155.683867	274.494067	649.163513	-26.053354	216.643186	588.265452	-49.947051	134.368862	556.206018	-52.436766	229.521039	575.462235	-86.422427	59.755068	521.591576	-56.829320	-4.463637	546.023825	-106.696056	161.298003	324.181204	-96.624877	81.667124	386.782161	-30.904332	166.684217	917.708777	-423.814796	236.324697	866.225195	-416.209606	264.478640	888.772332	-406.099000	271.102534	783.888830	-407.832646	317.388899	673.899805	-387.860869	321.674408	657.680974	-274.569830	241.862726	305.840740	-379.315841	173.985034	261.559643	-330.666597	369.787404	265.310672	-407.898835	299.152166	565.140768	-408.875846	302.385905	480.213674	-389.360982	263.954767	400.325476	-386.770961	327.556004	479.508523	-358.674925	452.969151	291.601624	-350.110526	-202.740955	865.814124	-215.413085	-49.142181	79.803757	-415.265048	-49.162109	79.768190	-17.732691	
1252	6.2600	555.779431	1205.102348	-84.667854	570.167872	1180.204302	-390.214702	557.802012	1294.357949	-241.165084	522.127110	1128.676329	-234.160171	490.756999	987.754922	65.288005	656.248753	907.225724	-60.331453	460.030876	958.145687	-513.054092	645.174260	912.206519	-402.059652	-6.440011	1146.014018	-212.118376	138.918120	1101.879175	-393.934951	143.352711	1108.088790	-55.390057	158.423415	1050.675573	-352.569737	167.399113	1066.867700	-92.150560	29.102493	1180.370383	-182.333519	28.139766	1178.793488	-241.868679	115.030553	1034.300180	-13.351981	113.557063	1035.331547	-411.092598	213.937070	955.604594	-14.873578	292.780010	911.594282	-23.174952	337.371964	837.708380	-24.207915	312.951644	936.555195	-43.012418	370.587553	741.694880	-47.614419	354.820589	723.139287	-156.865452	279.768166	658.075054	-26.055297	222.123995	597.428130	-49.901206	139.479740	566.140039	-52.292408	234.954834	584.415696	-86.362782	64.751339	531.953109	-56.626197	0.640032	556.194644	-106.660272	165.829490	334.058133	-96.740237	86.362775	396.836195	-31.009173	164.897398	914.472127	-423.910594	233.140995	861.172374	-416.199729	261.900106	882.983147	-406.086404	265.701077	778.068348	-407.536376	309.457067	666.078541	-387.601074	312.571825	649.400862	-274.885804	238.093451	297.101245	-379.017070	170.041028	253.476429	-330.166967	365.935985	255.483555	-407.569346	292.162957	557.149738	-408.781980	296.402199	472.301098	-389.258391	258.887316	391.939695	-386.756128	321.638612	471.657959	-358.361992	449.319292	280.833548	-349.772653	-202.743607	865.845681	-215.456837	-49.139543	79.826320	-415.252997	-49.145866	79.789949	-17.725619	
1253	6.2650	555.214531	1206.490275	-83.991459	570.474654	1181.080429	-389.145041	558.136064	1295.500683	-240.069760	521.383231	1129.892234	-232.971755	490.952071	988.613740	65.105179	656.502371	907.759931	-60.403875	460.945790	959.302538	-512.797858	645.946676	912.651544	-402.045283	-6.799193	1148.195267	-212.761037	140.380056	1102.907264	-394.887435	140.679531	1109.598440	-55.665505	160.231320	1051.868871	-353.140792	165.311911	1068.119132	-91.752269	29.229463	1181.258979	-184.562628	28.904733	1179.306428	-244.228026	114.849520	1038.740718	-13.930735	114.377070	1033.294478	-411.653213	214.388353	961.739372	-15.537399	294.687811	919.174229	-23.087980	340.649080	846.196104	-23.825968	314.640274	944.750047	-42.413422	376.574248	750.910358	-47.436262	362.616285	731.970816	-157.996378	285.766136	666.987576	-26.125798	227.806384	606.557346	-49.975989	145.192313	575.408703	-52.412963	240.531780	593.554248	-86.488053	70.138046	541.460415	-56.822678	5.994537	565.976028	-106.746866	170.949895	343.686706	-96.969082	91.514275	406.594409	-31.200012	163.206527	911.513050	-424.164822	229.927666	856.295495	-416.235981	259.271669	877.258716	-405.980309	260.681065	771.981870	-407.077407	301.356943	658.736793	-387.646200	303.337580	640.937295	-274.585060	233.717737	289.031967	-379.180570	165.481730	246.660772	-330.998228	361.547446	246.067232	-407.299745	284.944834	549.437167	-409.313842	289.973129	464.833503	-389.352983	253.388091	384.107376	-386.817116	315.342918	464.788256	-358.871665	445.232172	270.186991	-349.300122	-202.724507	865.894956	-215.486164	-49.117116	79.826712	-415.247224	-49.118574	79.789104	-17.741954	
1254	6.2700	554.418130	1208.085089	-83.304798	570.810048	1182.157216	-387.902172	558.405714	1296.707306	-238.944658	520.564251	1131.161916	-231.851967	491.047908	989.590273	64.838674	656.811631	908.340836	-60.431884	461.819749	960.623224	-512.464465	646.698156	913.145037	-402.024040	-6.828368	1149.503391	-214.127034	141.934033	1103.773163	-395.810591	139.330394	1112.001505	-56.369460	162.082921	1052.894633	-353.667318	164.389768	1070.106120	-91.684519	29.493700	1181.989280	-186.951783	29.584295	1179.672078	-246.582300	114.570764	1043.056155	-14.482183	115.306608	1031.012816	-412.159918	215.238233	967.646975	-16.007036	296.584958	926.792204	-22.919177	343.873120	854.712868	-23.715132	316.277875	952.816908	-41.870906	382.560835	760.217180	-47.361148	365.273160	740.734801	-157.255127	291.907618	675.860866	-26.182418	233.887922	615.721004	-50.011287	151.053252	584.818316	-52.418568	246.330697	603.391235	-85.815406	75.985112	550.848842	-56.728617	11.770478	575.918941	-106.378588	176.780481	353.201644	-97.002032	97.326274	416.002235	-31.332888	161.604721	908.495658	-424.465749	226.750894	851.480606	-416.343594	256.537189	871.661380	-406.022627	255.088509	766.370377	-407.056700	293.106146	651.892539	-387.948987	293.469729	633.062818	-275.522793	228.936166	281.556033	-379.366951	160.416940	240.296385	-331.452359	356.705670	237.003927	-407.009109	277.516987	542.346994	-409.956375	283.309181	457.818555	-389.606533	247.460428	376.798109	-387.049488	308.620213	458.003881	-358.951359	440.557660	259.861916	-348.791993	-202.775170	865.822590	-215.289412	-49.117350	79.853021	-415.245282	-49.112387	79.813616	-17.733406	
